<svg width="200" height="80" viewBox="0 0 200 80" fill="none" xmlns="http://www.w3.org/2000/svg">
<path d="M100 10C83.4473 10 70 23.4473 70 40C70 56.5527 83.4473 70 100 70C116.553 70 130 56.5527 130 40C130 23.4473 116.553 10 100 10ZM100 12.5C115.205 12.5 127.5 24.7949 127.5 40C127.5 55.2002 115.205 67.5 100 67.5C84.7998 67.5 72.5 55.2002 72.5 40C72.5 24.7949 84.7998 12.5 100 12.5ZM98.0859 13.3984L95.4688 13.7109L95.1953 21.6016L97.2266 21.2891L97.4219 16.0156L99.2578 21.2891H100.742L102.578 16.0156L102.773 21.2891L104.805 21.6016L104.531 13.7109L101.914 13.3984L100 18.9453L98.0859 13.3984ZM117.227 19.4531L112.5 25.7031L113.945 27.0312L119.18 24.6484L115.703 29.2188L116.719 30.9375L123.828 27.6562L122.812 25.9375L118.711 27.8125L121.641 23.9844L120.352 22.3828L115.977 24.4141L118.711 20.8203L117.227 19.4531ZM82.4219 20.3906C82.2461 20.4053 82.0459 20.4443 81.875 20.5078C81.5527 20.6299 81.2695 20.8252 81.0547 21.0938C80.9326 21.2451 80.8252 21.4111 80.7031 21.5625C80.0684 22.3584 79.4238 23.1494 78.7891 23.9453C78.2422 24.6289 77.6953 25.293 77.1484 25.9766C77.1143 26.0205 77.0654 26.0889 77.0312 26.1328C77.0264 26.1377 77.1045 26.167 77.1094 26.1719C77.3242 26.3428 77.5635 26.5088 77.7734 26.6797C78.5742 27.3193 79.3555 27.9541 80.1562 28.5938C80.9473 29.2285 81.7432 29.873 82.5391 30.5078C82.7393 30.6689 82.9639 30.8545 83.1641 31.0156C83.1738 31.0254 83.1934 31.0645 83.2031 31.0547C83.2422 31.0059 83.2812 30.9473 83.3203 30.8984C83.8623 30.2197 84.4189 29.5459 84.9609 28.8672C85.6152 28.0518 86.2598 27.2217 86.9141 26.4062C87.251 25.9863 87.6123 25.6055 87.7734 25.0781C87.8564 24.8047 87.876 24.4971 87.8516 24.2188C87.7441 23.4717 87.2949 22.8564 86.6016 22.5391C85.9082 22.2217 85.1025 22.3389 84.4922 22.7734C84.4434 22.8076 84.3848 22.8516 84.3359 22.8906C84.4385 22.5439 84.502 22.1924 84.4141 21.8359C84.3311 21.4893 84.1211 21.1865 83.8672 20.9375C83.4766 20.5566 82.9541 20.3516 82.4219 20.3906ZM82.2656 22.3828C82.5342 22.3633 82.8223 22.4512 83.0078 22.6562C83.208 22.876 83.2666 23.1885 83.2031 23.4766C83.1299 23.7305 82.9346 23.9014 82.7734 24.1016C82.4512 24.5068 82.1191 24.9072 81.7969 25.3125C81.4697 25.7178 81.1426 26.1182 80.8203 26.5234C80.4883 26.2598 80.1758 26.0059 79.8438 25.7422C79.7168 25.6396 79.5801 25.5322 79.4531 25.4297C79.4482 25.4248 79.5996 25.2832 79.6094 25.2734C80.2246 24.5068 80.8301 23.7354 81.4453 22.9688C81.6064 22.7686 81.7432 22.5244 81.9922 22.4219C82.0752 22.3877 82.1777 22.3877 82.2656 22.3828ZM100 22.5C90.3516 22.5 82.5 30.3516 82.5 40C82.5 49.6484 90.3516 57.5 100 57.5C109.648 57.5 117.5 49.6484 117.5 40C117.5 30.3516 109.648 22.5 100 22.5ZM85 24.1406C85.3613 24.1309 85.6689 24.3262 85.8203 24.6484C85.9521 24.9609 85.9131 25.3223 85.7031 25.5859C85.4932 25.8496 85.2832 26.1084 85.0781 26.3672C84.5068 27.085 83.9307 27.7979 83.3594 28.5156C83.3301 28.4912 83.2715 28.501 83.2422 28.4766C83.0859 28.3496 82.9297 28.2129 82.7734 28.0859C82.5049 27.8711 82.2607 27.6367 81.9922 27.4219C82.5098 26.7725 82.998 26.1572 83.5156 25.5078C83.7695 25.1904 84.043 24.8486 84.2969 24.5312C84.4775 24.3066 84.6973 24.1504 85 24.1406ZM100 25C108.301 25 115 31.6992 115 40H100V55C91.6992 55 85 48.3008 85 40H100V25Z" fill="#061A2D"/>
</svg>
