<svg width="200" height="80" viewBox="0 0 200 80" fill="none" xmlns="http://www.w3.org/2000/svg">
<rect width="102.667" height="55" transform="translate(48.666 12.5)" fill="#061A2D"/>
<path d="M54.166 22.4285V17.9448H54.7655V22.0243H56.1695V22.4282L54.166 22.4285Z" fill="#D2E6F9"/>
<path d="M57.2568 18.2382C57.0677 18.2382 56.918 18.0948 56.918 17.9253C56.918 17.7493 57.068 17.606 57.2568 17.606C57.4392 17.606 57.5893 17.7493 57.5893 17.9253C57.589 18.0948 57.4392 18.2382 57.2568 18.2382ZM56.9699 22.4285V18.9159H57.5434V22.4285H56.9699Z" fill="#D2E6F9"/>
<path d="M60.4862 22.4278V19.9058C60.4862 19.5801 60.3493 19.2217 59.7498 19.2217C59.4241 19.2217 59.2677 19.2672 59.0852 19.3454V22.4278H58.5117V19.0976C58.8246 18.9476 59.235 18.8501 59.7957 18.8501C60.7731 18.8501 61.0601 19.3909 61.0601 19.8927V22.4278H60.4862Z" fill="#D2E6F9"/>
<path d="M63.3024 22.4935C62.2986 22.4935 61.7578 21.7898 61.7578 20.7274C61.7578 19.5608 62.3769 18.8831 63.2828 18.8831C63.4784 18.8831 63.6477 18.909 63.8368 18.9613V17.3125H64.4039V22.2457C64.1693 22.3893 63.7913 22.4935 63.3024 22.4935ZM63.8368 19.2806C63.6935 19.2415 63.5502 19.2155 63.4002 19.2155C62.5856 19.2155 62.3249 19.9192 62.3249 20.6819C62.3249 21.5096 62.6115 22.1155 63.3287 22.1155C63.5633 22.1155 63.7262 22.0896 63.8371 22.0178L63.8368 19.2806Z" fill="#D2E6F9"/>
<path d="M65.6577 20.8897C65.7228 21.6847 66.0944 22.0758 66.7265 22.0758C67.1241 22.0758 67.4107 21.9781 67.5934 21.8739L67.7434 22.2518C67.5283 22.3823 67.1568 22.4929 66.6813 22.4929C65.7625 22.4929 65.1172 21.913 65.1172 20.6617C65.1172 19.4692 65.7039 18.8501 66.5313 18.8501C67.3719 18.8501 67.8803 19.3977 67.8672 20.5707L65.6577 20.8897ZM66.5114 19.2213C66.003 19.2213 65.625 19.632 65.6382 20.5835L67.3196 20.3293C67.3193 19.5342 67.0132 19.2213 66.5114 19.2213Z" fill="#D2E6F9"/>
<path d="M73.784 22.4285C73.7776 22.3699 73.4387 19.0723 73.4387 19.0723C73.4128 18.7921 73.406 18.5446 73.406 18.5446H73.3929C73.3929 18.5446 73.3474 18.7921 73.2691 19.0723C73.2691 19.0723 72.3439 22.3503 72.3176 22.4285H71.9201C71.9006 22.3635 70.9818 19.0659 70.9818 19.0659C70.91 18.7989 70.858 18.5446 70.858 18.5446H70.8449C70.8449 18.5446 70.8385 18.7989 70.8122 19.0659C70.8122 19.0659 70.4669 22.3635 70.4602 22.4285H69.9453L70.4797 17.9448H71.1119L72.0112 21.1837C72.0961 21.4835 72.1288 21.6919 72.1288 21.6919H72.142C72.142 21.6919 72.1746 21.4835 72.2593 21.1901L73.1845 17.9448H73.8167L74.3511 22.4285H73.784Z" fill="#D2E6F9"/>
<path d="M76.332 22.4929C75.4196 22.4929 74.9961 22.0954 74.9961 21.4568C74.9961 20.5248 75.8694 20.2511 76.9578 20.1405V19.9253C76.9578 19.3845 76.632 19.2281 76.1823 19.2281C75.8434 19.2281 75.5305 19.3518 75.335 19.4496L75.1981 19.1107C75.4 18.9998 75.7911 18.8501 76.2733 18.8501C76.9251 18.8501 77.4986 19.1303 77.4986 19.9904V22.2451C77.2312 22.3952 76.8209 22.4929 76.332 22.4929ZM76.9578 20.4335C76.0713 20.5444 75.5436 20.7332 75.5436 21.4437C75.5436 21.9521 75.8565 22.1605 76.3778 22.1605C76.5993 22.1605 76.8145 22.1214 76.9578 22.0432V20.4335Z" fill="#D2E6F9"/>
<path d="M79.4823 22.4604C78.8437 22.4604 78.609 22.0042 78.609 21.574V19.2735H78.2051V18.915H78.609V18.1072L79.1825 17.9312V18.9153H79.7952V19.2738H79.1825V21.5612C79.1825 21.8413 79.3063 22.0696 79.6256 22.0696C79.6843 22.0696 79.7365 22.0565 79.7949 22.0436V22.4085C79.7298 22.428 79.6256 22.4604 79.4823 22.4604Z" fill="#D2E6F9"/>
<path d="M80.8843 20.8897C80.9494 21.6847 81.3209 22.0758 81.9531 22.0758C82.3506 22.0758 82.6372 21.9781 82.82 21.8739L82.97 22.2518C82.7549 22.3823 82.3833 22.4929 81.9079 22.4929C80.9891 22.4929 80.3438 21.913 80.3438 20.6617C80.3438 19.4692 80.9304 18.8501 81.7579 18.8501C82.5984 18.8501 83.1069 19.3977 83.0938 20.5707L80.8843 20.8897ZM81.738 19.2213C81.2296 19.2213 80.8516 19.632 80.8647 20.5835L82.5462 20.3293C82.5459 19.5342 82.2397 19.2213 81.738 19.2213Z" fill="#D2E6F9"/>
<path d="M85.3477 19.2937C85.061 19.2091 84.735 19.2351 84.5462 19.3588V22.4281H83.9727V19.1046C84.3182 18.9286 84.6504 18.8375 85.4845 18.8571L85.3477 19.2937Z" fill="#D2E6F9"/>
<path d="M86.585 18.2382C86.3958 18.2382 86.2461 18.0948 86.2461 17.9253C86.2461 17.7493 86.3961 17.606 86.585 17.606C86.7674 17.606 86.9174 17.7493 86.9174 17.9253C86.9174 18.0948 86.7674 18.2382 86.585 18.2382ZM86.2983 22.4285V18.9159H86.8719V22.4285H86.2983Z" fill="#D2E6F9"/>
<path d="M89.0566 22.4929C88.1442 22.4929 87.7207 22.0954 87.7207 21.4568C87.7207 20.5248 88.594 20.2511 89.6824 20.1405V19.9253C89.6824 19.3845 89.3566 19.2281 88.9069 19.2281C88.568 19.2281 88.2551 19.3518 88.0596 19.4496L87.9227 19.1107C88.1247 18.9998 88.5158 18.8501 88.9979 18.8501C89.6497 18.8501 90.2232 19.1303 90.2232 19.9904V22.2451C89.9558 22.3952 89.5452 22.4929 89.0566 22.4929ZM89.6821 20.4335C88.7956 20.5444 88.268 20.7332 88.268 21.4437C88.268 21.9521 88.5808 22.1605 89.1021 22.1605C89.3237 22.1605 89.5388 22.1214 89.6821 22.0432V20.4335Z" fill="#D2E6F9"/>
<path d="M91.1484 22.4284V17.3125H91.722V22.4281L91.1484 22.4284Z" fill="#D2E6F9"/>
<path d="M96.4789 22.4285V20.3104H94.7636V22.4285H94.1641V17.9448H94.7636V19.9129H96.4789V17.9448H97.0784V22.4285H96.4789Z" fill="#D2E6F9"/>
<path d="M99.2343 22.4929C98.3219 22.4929 97.8984 22.0954 97.8984 21.4568C97.8984 20.5248 98.7717 20.2511 99.8601 20.1405V19.9253C99.8601 19.3845 99.5344 19.2281 99.0846 19.2281C98.7457 19.2281 98.4329 19.3518 98.2373 19.4496L98.1004 19.1107C98.3024 18.9998 98.6935 18.8501 99.1757 18.8501C99.8274 18.8501 100.401 19.1303 100.401 19.9904V22.2451C100.134 22.3952 99.7229 22.4929 99.2343 22.4929ZM99.8598 20.4335C98.9734 20.5444 98.4457 20.7332 98.4457 21.4437C98.4457 21.9521 98.7586 22.1605 99.2799 22.1605C99.5014 22.1605 99.7165 22.1214 99.8598 22.0432V20.4335Z" fill="#D2E6F9"/>
<path d="M103.283 22.4278V19.9058C103.283 19.5801 103.146 19.2217 102.547 19.2217C102.221 19.2217 102.065 19.2672 101.882 19.3454V22.4278H101.309V19.0976C101.621 18.9476 102.032 18.8501 102.593 18.8501C103.57 18.8501 103.857 19.3909 103.857 19.8927V22.4278H103.283Z" fill="#D2E6F9"/>
<path d="M106.091 22.4935C105.088 22.4935 104.547 21.7898 104.547 20.7274C104.547 19.5608 105.166 18.8831 106.072 18.8831C106.267 18.8831 106.437 18.909 106.626 18.9613V17.3125H107.193V22.2457C106.958 22.3893 106.58 22.4935 106.091 22.4935ZM106.626 19.2806C106.483 19.2415 106.339 19.2155 106.189 19.2155C105.375 19.2155 105.114 19.9192 105.114 20.6819C105.114 21.5096 105.401 22.1155 106.118 22.1155C106.352 22.1155 106.515 22.0896 106.626 22.0178V19.2806H106.626Z" fill="#D2E6F9"/>
<path d="M108.178 22.4284V17.3125H108.751V22.4281L108.178 22.4284Z" fill="#D2E6F9"/>
<path d="M110.038 18.2382C109.849 18.2382 109.699 18.0948 109.699 17.9253C109.699 17.7493 109.849 17.606 110.038 17.606C110.22 17.606 110.371 17.7493 110.371 17.9253C110.37 18.0948 110.22 18.2382 110.038 18.2382ZM109.751 22.4285V18.9159H110.325V22.4285H109.751Z" fill="#D2E6F9"/>
<path d="M113.275 22.4278V19.9058C113.275 19.5801 113.138 19.2217 112.539 19.2217C112.213 19.2217 112.057 19.2672 111.874 19.3454V22.4278H111.301V19.0976C111.614 18.9476 112.024 18.8501 112.585 18.8501C113.562 18.8501 113.849 19.3909 113.849 19.8927V22.4278H113.275Z" fill="#D2E6F9"/>
<path d="M115.837 23.9006C115.375 23.9006 114.984 23.8028 114.749 23.6595L114.925 23.2752C115.12 23.3861 115.427 23.4835 115.739 23.4835C116.384 23.4835 116.632 23.0924 116.632 22.5647V22.3169C116.476 22.4083 116.235 22.467 115.929 22.467C115.088 22.467 114.547 21.8024 114.547 20.7335C114.547 19.6192 115.088 18.8501 116.143 18.8501C116.632 18.8501 116.984 18.9674 117.186 19.0976V22.4993C117.186 23.3858 116.678 23.9006 115.837 23.9006ZM116.632 19.2932C116.502 19.2213 116.333 19.1954 116.131 19.1954C115.42 19.1954 115.114 19.7885 115.114 20.7137C115.114 21.6197 115.407 22.1278 116.079 22.1278C116.3 22.1278 116.496 22.0691 116.633 21.9845L116.632 19.2932Z" fill="#D2E6F9"/>
<path d="M118.054 57.2554C118.445 56.1399 119.673 53.7507 121.162 53.7507C121.439 53.7507 121.621 53.8836 121.71 54.0771C121.806 54.2833 121.79 54.5687 121.688 54.8134C121.168 56.0598 119.68 56.985 118.054 57.2554ZM108.858 55.1804C108.804 56.2364 107.315 59.5489 105.448 59.5489C104.633 59.5489 104.595 58.7374 104.759 58.0224C105.021 56.8781 106.605 54.089 108.062 54.089C108.661 54.089 108.886 54.6347 108.858 55.1804ZM64.8864 58.8507C63.4986 59.7396 62.1025 60.2795 60.6905 60.2795C58.563 60.2795 57.3676 59.4606 57.3676 58.4221C57.3676 57.6866 58.0637 57.0229 59.3058 57.0229C60.9668 57.0232 62.8572 57.8867 64.8864 58.8507ZM117.893 58.0077C119.106 57.8134 122.955 57.2007 123.497 55.2754C123.943 53.6914 122.453 52.9169 120.933 52.9169C117.902 52.9169 114.837 54.7939 114.058 57.8803C114.016 58.0401 113.988 58.2057 113.973 58.3732C113.033 59.1801 112.115 59.6171 111.604 59.6171C111.044 59.6171 110.972 59.2293 111.23 58.7282L116.055 49.3776H112.127L109.551 54.3679C109.36 53.6707 108.57 52.8573 106.835 52.8573C103.534 52.8573 101.606 55.596 100.927 57.4571C100.809 57.7816 100.733 58.0966 100.697 58.3988C99.7687 59.189 98.8651 59.6168 98.3594 59.6168C97.8 59.6168 97.7272 59.229 97.9857 58.7279L99.3846 56.0189C100.106 54.6216 99.4628 53.0858 97.5292 53.0858C95.8505 53.0858 94.3124 53.9912 92.4307 55.3653L93.4849 53.3229H89.4296L88.2352 55.6388C86.9365 58.1544 84.6369 59.6168 83.7019 59.6168C83.1425 59.6168 83.0606 59.2226 83.3292 58.7279L86.261 53.3229H82.2084L80.5761 56.3305C79.9671 57.4525 78.4595 59.1147 75.9964 59.1147C74.3318 59.1147 72.6203 58.6861 70.8506 58.1403C73.6623 56.4344 76.5049 54.0685 79.1241 51.0414C84.3265 45.0283 87.7704 42.7471 93.4712 42.7471C100.832 42.7471 103.581 45.5304 103.581 47.8275C103.581 49.5939 102.743 50.1583 102.052 50.4742L102.155 51.071C105.419 50.9482 107.248 49.3409 107.248 47.4816C107.248 44.2446 101.686 41.7754 92.9117 41.7754C85.3587 41.7754 78.8072 44.8963 74.3923 49.579C71.9952 52.1187 69.6387 54.9115 67.2777 57.0052C65.283 56.4017 63.2111 55.9046 61.0471 55.9046C56.8421 55.9046 54.166 56.9655 54.166 58.7994C54.166 60.4283 57.1479 61.4379 60.6716 61.4379C62.6663 61.4379 64.9249 60.9462 67.286 59.9636C69.1459 60.7751 71.0859 61.4379 73.0432 61.4379C75.6151 61.4379 77.7708 60.1243 79.1819 58.9073C78.506 60.2963 79.3676 61.4379 80.9211 61.4379C82.3859 61.4379 84.6687 60.5799 86.6133 58.7817L85.3651 61.1989H89.4213L89.78 60.5017C90.6176 58.8709 92.707 55.1459 94.7594 55.1459C95.3598 55.1459 95.4936 55.6999 95.2009 56.2679L93.8968 58.793C93.1448 60.249 93.9823 61.4379 95.5783 61.4379C96.9129 61.4379 98.8966 60.7247 100.698 59.2373C100.869 60.5389 101.851 61.4379 103.233 61.4379C104.834 61.4379 106.743 60.1179 107.401 59.4967C107.296 60.4329 107.775 61.4379 109.141 61.4379C110.255 61.4379 112.206 60.7082 114.008 59.1872C114.236 60.4403 115.299 61.5904 117.645 61.5904C119.577 61.5904 122.025 60.7556 123.61 59.7329L123.596 59.006C122.287 59.6354 121.099 60.1384 119.756 60.1384C118.41 60.1384 117.639 59.1911 117.893 58.0077ZM87.9715 50.2206C88.1285 49.1961 87.3402 48.3668 86.2081 48.3668C85.076 48.3668 84.0322 49.1961 83.874 50.2206C83.716 51.2461 84.504 52.0754 85.6364 52.0754C86.7679 52.0754 87.8126 51.2461 87.9715 50.2206Z" fill="#D2E6F9"/>
</svg>
