<svg width="200" height="80" viewBox="0 0 200 80" fill="none" xmlns="http://www.w3.org/2000/svg">
<path d="M162.523 50.5187C162.523 48.6063 164.093 47.0371 166.005 47.0371C167.918 47.0371 169.487 48.6063 169.487 50.5187C169.487 52.4311 167.918 54.0003 166.005 54.0003C164.093 54.0003 162.523 52.4311 162.523 50.5187Z" fill="#061A2D"/>
<path fill-rule="evenodd" clip-rule="evenodd" d="M30.5137 53.5585H34.4858V51.548C35.7118 52.9211 37.5262 53.8528 39.5858 53.8528C41.9887 53.8528 43.7541 52.774 44.8329 51.3029C45.9118 49.9298 46.206 48.6058 46.206 43.8003C46.206 38.9947 45.9118 37.7197 44.8329 36.2977C43.705 34.8266 41.9887 33.7478 39.5858 33.7478C37.5752 33.7478 36.006 34.6795 34.4858 36.0525V26H30.5137V53.5585ZM38.3598 37.6707C42.0868 37.6707 42.2829 40.711 42.2829 43.7512C42.2829 46.7915 42.0868 49.8808 38.3598 49.8808C34.6819 49.8808 34.4858 46.5953 34.4858 43.7512C34.4858 40.9071 34.6819 37.6707 38.3598 37.6707Z" fill="#061A2D"/>
<path fill-rule="evenodd" clip-rule="evenodd" d="M61.2638 53.559H65.2359V40.172C65.2359 35.3174 61.9013 33.6992 57.0465 33.6992C54.1042 33.6992 51.9465 34.4838 50.4263 36.5433L53.5157 38.8971C54.2023 37.7693 55.183 37.377 57.2426 37.377C60.0869 37.377 61.2638 38.0144 61.2638 39.8778V41.9374H55.7715C51.5542 41.9374 49.3965 44.6344 49.3965 47.7727C49.3965 51.2053 51.9465 53.7552 56.3109 53.7552C59.008 53.7552 60.3321 53.1177 61.1657 51.7937H61.2638V53.559ZM61.2638 46.6939C61.2638 49.7342 60.1359 50.1265 56.8503 50.1265C54.1532 50.0774 53.1234 48.9496 53.1234 47.6256C53.1234 46.2035 54.2023 45.2718 56.5561 45.2718H61.2638V46.6939Z" fill="#061A2D"/>
<path d="M68.4707 50.2736C70.9717 52.6273 73.914 53.8042 77.1015 53.8042C81.6621 53.8042 85.2419 51.5976 85.2419 47.7727C85.2419 44.6344 83.6236 42.1335 79.5534 41.8883L76.3169 41.6431C74.3553 41.496 73.7178 40.6134 73.7178 39.7798C73.7178 38.4067 74.5515 37.426 77.1015 37.426C79.2101 37.426 80.8284 38.1615 82.3486 39.2403L84.8005 36.3962C82.839 34.778 80.5342 33.6992 77.1015 33.6992C72.9332 33.6992 69.7947 35.7588 69.7947 39.7307C69.7947 43.1142 72.1976 45.0267 75.4342 45.3209L78.9159 45.6151C80.289 45.7132 81.3188 46.1545 81.3188 47.5766C81.3188 49.2438 79.7005 50.0774 77.4447 50.0774C74.7967 50.0774 72.9332 49.2438 71.2659 47.5766L68.4707 50.2736Z" fill="#061A2D"/>
<path fill-rule="evenodd" clip-rule="evenodd" d="M104.804 45.2711V42.0347C104.804 36.9349 101.028 33.7476 96.7124 33.7476C92.9365 33.7476 88.6211 36.2484 88.6211 43.8491C88.6211 51.8911 93.3288 53.8525 97.3499 53.8525C99.998 53.8525 102.499 52.9209 104.461 50.6652L101.616 48.2133C100.439 49.4393 98.8211 50.1258 97.3009 50.1258C94.6038 50.1258 92.5932 48.5076 92.5932 45.2711H104.804ZM92.5442 41.9857C92.6422 38.9945 94.3586 37.4253 96.7124 37.4253C99.0172 37.4253 100.734 38.9945 100.881 41.9857H92.5442Z" fill="#061A2D"/>
<path d="M109.664 53.559H113.636V41.8883C113.636 39.1913 115.303 37.6712 117.559 37.6712C119.766 37.6712 121.433 39.2403 121.433 41.8883V53.6081H125.405V40.5153C125.405 36.053 121.924 33.6992 118.834 33.6992C116.726 33.6992 114.96 34.4838 113.734 36.0039H113.636V33.8954H109.664V53.559Z" fill="#061A2D"/>
<path fill-rule="evenodd" clip-rule="evenodd" d="M145.997 45.2711V42.0347C145.997 36.9349 142.221 33.7476 137.906 33.7476C134.13 33.7476 129.814 36.2484 129.814 43.8491C129.814 51.8911 134.522 53.8525 138.543 53.8525C141.191 53.8525 143.692 52.9209 145.654 50.6652L142.81 48.2133C141.633 49.4393 140.014 50.1258 138.494 50.1258C135.797 50.1258 133.787 48.5076 133.787 45.2711H145.997ZM133.738 41.9857C133.836 38.9945 135.552 37.4253 137.906 37.4253C140.211 37.4253 141.927 38.9945 142.074 41.9857H133.738Z" fill="#061A2D"/>
<path d="M150.708 33.9439H148.746V36.9842H150.708V48.7529C150.708 51.8422 152.718 53.6075 155.464 53.6075H157.524V49.8808H156.053C155.072 49.8808 154.68 49.4885 154.68 48.4097V36.9351H157.524V33.8948H154.631V27.9614H150.708V33.9439Z" fill="#061A2D"/>
</svg>
