<svg width="200" height="80" viewBox="0 0 200 80" fill="none" xmlns="http://www.w3.org/2000/svg">
<path d="M67.0225 47.2273V48.0737C67.0225 48.6071 66.8519 48.8359 66.0577 48.8359H57.062C57.1468 51.8263 57.8279 52.5036 60.582 52.5036H65.4353C65.4931 52.4946 65.5521 52.4994 65.6077 52.5174C65.6633 52.5354 65.7139 52.5662 65.7554 52.6074C65.7969 52.6485 65.8282 52.6988 65.8467 52.7543C65.8652 52.8097 65.8705 52.8687 65.862 52.9265V54.6759C65.8694 54.7338 65.8649 54.7927 65.8486 54.8488C65.8323 54.9049 65.8047 54.9571 65.7675 55.0021C65.7302 55.0471 65.6841 55.0839 65.632 55.1104C65.5799 55.1369 65.523 55.1523 65.4647 55.1559C63.7801 55.3815 62.0815 55.4852 60.382 55.4663C54.8481 55.4663 53.5996 53.886 53.5996 47.5377C53.5996 41.1612 54.8481 39.5809 60.382 39.5809C65.7153 39.5809 66.9655 41.1047 67.0225 47.2273ZM57.062 46.3809H63.5601C63.5319 43.3335 62.9073 42.5436 60.382 42.5436C57.7425 42.5436 57.0897 43.3335 57.062 46.3836M82.8871 39.7223C82.9449 39.7133 83.004 39.718 83.0596 39.7361C83.1153 39.7541 83.1659 39.785 83.2074 39.8262C83.2489 39.8674 83.2802 39.9178 83.2987 39.9733C83.3171 40.0288 83.3223 40.0879 83.3137 40.1457V54.5345C83.3137 54.9015 83.1724 54.9297 82.8871 54.9863C80.797 55.342 78.6784 55.5027 76.5585 55.4663C71.3089 55.4663 69.8332 54.6476 69.8332 48.7505V40.1457C69.8332 39.8631 70.0321 39.7223 70.3159 39.7223H72.8695C73.1532 39.7223 73.2668 39.8631 73.2668 40.1457V48.1303C73.2668 52.3057 73.9196 52.5036 76.5873 52.5036H79.8508V40.1457C79.8423 40.0879 79.8474 40.0288 79.8659 39.9733C79.8844 39.9178 79.9156 39.8674 79.9571 39.8262C79.9987 39.785 80.0493 39.7541 80.1049 39.7361C80.1606 39.718 80.2197 39.7133 80.2775 39.7223H82.8871ZM95.2071 39.8913C95.4908 39.9761 95.6609 40.0892 95.6609 40.3996V42.1207C95.6609 42.4311 95.4908 42.5719 95.1809 42.5436H92.598C90.8951 42.5436 90.3847 42.8257 90.3847 44.0673V54.9015C90.3932 54.9593 90.3881 55.0184 90.3696 55.0739C90.3511 55.1294 90.3199 55.1798 90.2783 55.221C90.2368 55.2622 90.1862 55.2931 90.1306 55.3112C90.0749 55.3292 90.0158 55.3339 89.958 55.3249H87.3756C87.3178 55.3339 87.2587 55.3292 87.2031 55.3112C87.1474 55.2931 87.0968 55.2622 87.0553 55.221C87.0138 55.1798 86.9825 55.1294 86.964 55.0739C86.9456 55.0184 86.9404 54.9593 86.9489 54.9015V43.1927C86.9489 39.8327 89.6444 39.5809 91.7447 39.5809C92.9061 39.5735 94.0655 39.6774 95.2071 39.8913ZM111.639 47.5377C111.639 53.8844 110.391 55.4663 104.715 55.4663C99.0391 55.4663 97.8188 53.886 97.8188 47.5377C97.8188 41.1612 99.0391 39.5809 104.715 39.5809C110.391 39.5809 111.639 41.1612 111.639 47.5377ZM101.252 47.5377C101.252 51.5159 101.679 52.5036 104.715 52.5036C107.751 52.5036 108.177 51.5159 108.177 47.5377C108.177 43.5313 107.75 42.5436 104.715 42.5436C101.68 42.5436 101.252 43.5313 101.252 47.5377ZM115.301 37.2108C115.301 33.8508 117.798 33.5996 119.869 33.5996C120.802 33.6143 121.731 33.6991 122.651 33.8535C122.713 33.8571 122.774 33.8733 122.829 33.9011C122.885 33.929 122.934 33.9679 122.974 34.0155C123.014 34.0631 123.044 34.1184 123.061 34.1779C123.079 34.2375 123.085 34.3 123.077 34.3617V36.1393C123.077 36.4209 122.936 36.5623 122.624 36.5623H120.746C119.356 36.5623 118.732 36.6748 118.732 37.8881V39.7505H122.279C122.592 39.7505 122.706 39.8913 122.648 40.2023L122.308 42.0359C122.304 42.0943 122.288 42.1512 122.262 42.2033C122.235 42.2553 122.198 42.3013 122.152 42.3383C122.107 42.3754 122.055 42.4028 121.998 42.4187C121.942 42.4347 121.883 42.4389 121.825 42.4311H118.732V54.9015C118.74 54.9593 118.735 55.0184 118.717 55.0739C118.698 55.1294 118.667 55.1798 118.626 55.221C118.584 55.2622 118.533 55.2931 118.478 55.3112C118.422 55.3292 118.363 55.3339 118.305 55.3249H115.723C115.665 55.3339 115.606 55.3292 115.55 55.3112C115.495 55.2931 115.444 55.2622 115.402 55.221C115.361 55.1798 115.33 55.1294 115.311 55.0739C115.293 55.0184 115.288 54.9593 115.296 54.9015L115.301 37.2108ZM138.061 39.7223C138.119 39.7133 138.178 39.718 138.233 39.7361C138.289 39.7541 138.34 39.785 138.381 39.8262C138.423 39.8674 138.454 39.9178 138.473 39.9733C138.491 40.0288 138.496 40.0879 138.488 40.1457V54.5345C138.488 54.9015 138.346 54.9297 138.061 54.9863C135.971 55.342 133.853 55.5027 131.733 55.4663C126.483 55.4663 125.007 54.6476 125.007 48.7505V40.1457C125.007 39.8631 125.206 39.7223 125.487 39.7223H128.041C128.325 39.7223 128.439 39.8631 128.439 40.1457V48.1303C128.439 52.3057 129.091 52.5036 131.759 52.5036H135.022V40.1457C135.013 40.0879 135.019 40.0288 135.037 39.9733C135.056 39.9178 135.087 39.8674 135.128 39.8262C135.17 39.785 135.22 39.7541 135.276 39.7361C135.332 39.718 135.391 39.7133 135.449 39.7223H138.061ZM155.572 46.2679V54.9015C155.577 54.961 155.568 55.0209 155.546 55.0766C155.525 55.1322 155.491 55.1823 155.447 55.2231C155.403 55.2638 155.351 55.2941 155.294 55.3117C155.237 55.3294 155.177 55.3339 155.117 55.3249H152.564C152.506 55.3339 152.447 55.3292 152.391 55.3112C152.336 55.2931 152.285 55.2622 152.244 55.221C152.202 55.1798 152.171 55.1294 152.152 55.0739C152.134 55.0184 152.129 54.9593 152.137 54.9015V46.8887C152.137 42.7132 151.485 42.5436 148.818 42.5436H145.554V54.9015C145.562 54.9593 145.557 55.0184 145.539 55.0739C145.52 55.1294 145.489 55.1798 145.447 55.221C145.406 55.2622 145.355 55.2931 145.3 55.3112C145.244 55.3292 145.185 55.3339 145.127 55.3249H142.514C142.229 55.3249 142.116 55.1836 142.116 54.9015V40.4839C142.116 40.1169 142.258 40.0892 142.514 40.0332C144.614 39.6844 146.742 39.533 148.87 39.5809C154.12 39.5809 155.567 40.3713 155.567 46.2679M162.21 33.7687C162.269 33.7634 162.329 33.7716 162.385 33.7928C162.441 33.814 162.492 33.8476 162.533 33.8911C162.574 33.9346 162.604 33.9868 162.622 34.0438C162.64 34.1009 162.645 34.1612 162.636 34.2204V45.1676L167.007 40.0044C167.078 39.9154 167.169 39.8438 167.272 39.7949C167.376 39.746 167.489 39.7212 167.603 39.7223H170.668C171.178 39.7223 171.207 39.9479 170.923 40.2556L166.127 45.8705L172.373 54.5633C172.627 54.9015 172.656 55.3249 171.89 55.3249H169.138C169.017 55.3243 168.898 55.296 168.789 55.2422C168.681 55.1884 168.586 55.1105 168.513 55.0145L162.637 46.6348V54.8737C162.637 55.1836 162.496 55.3249 162.211 55.3249H159.628C159.344 55.3249 159.201 55.1836 159.201 54.8737V34.2204C159.193 34.1612 159.197 34.1009 159.215 34.0438C159.233 33.9868 159.264 33.9346 159.305 33.8911C159.346 33.8476 159.396 33.814 159.452 33.7928C159.508 33.7716 159.568 33.7634 159.628 33.7687H162.21Z" fill="#061A2D"/>
<path d="M45.6037 32.6399V37.5337C45.6038 38.1383 45.4848 38.737 45.2534 39.2956C45.0221 39.8542 44.683 40.3617 44.2555 40.7892C43.828 41.2167 43.3204 41.5558 42.7619 41.7872C42.2033 42.0185 41.6046 42.1375 41 42.1375H36.8667C35.6457 42.1375 34.4747 41.6524 33.6113 40.7891C32.748 39.9257 32.2629 38.7547 32.2629 37.5337V33.4004C32.2629 32.1794 32.748 31.0084 33.6113 30.1451C34.4747 29.2817 35.6457 28.7967 36.8667 28.7967H41.7493C42.0138 28.7967 42.2758 28.7445 42.5201 28.6432C42.7644 28.5419 42.9864 28.3934 43.1733 28.2063L45.864 25.5156C45.9445 25.4352 45.9993 25.3327 46.0215 25.2211C46.0437 25.1095 46.0324 24.9938 45.9889 24.8887C45.9454 24.7836 45.8717 24.6937 45.7771 24.6304C45.6826 24.5671 45.5714 24.5333 45.4576 24.5332H36.9189C34.5534 24.5333 32.2849 25.4731 30.6123 27.1458C28.9397 28.8186 28 31.0872 28 33.4527V37.4809C28 39.8464 28.9397 42.115 30.6123 43.7876C32.2849 45.4602 34.5535 46.3999 36.9189 46.3999H40.9477C43.3132 46.3999 45.5817 45.4602 47.2544 43.7876C48.927 42.115 49.8667 39.8464 49.8667 37.4809V28.9316C49.8668 28.8178 49.8332 28.7065 49.77 28.6118C49.7069 28.5171 49.617 28.4433 49.5119 28.3997C49.4067 28.3561 49.291 28.3447 49.1794 28.367C49.0677 28.3892 48.9652 28.4441 48.8848 28.5247L46.1936 31.2148C45.8159 31.5929 45.6038 32.1055 45.6037 32.6399Z" fill="#061A2D"/>
</svg>
