<svg width="200" height="80" viewBox="0 0 200 80" fill="none" xmlns="http://www.w3.org/2000/svg">
<path d="M156.461 33.6826C152.831 33.6826 149.924 36.0288 149.924 40.0228C149.924 43.978 152.831 46.3252 156.461 46.3252C158.339 46.3252 160.561 45.5493 161.698 44.6473V38.8861H155.938V41.071H159.171V43.3267C158.502 43.7247 157.6 43.9776 156.623 43.9776C154.277 43.9776 152.542 42.534 152.542 40.0228C152.542 37.4762 154.277 36.0291 156.517 36.0291C157.961 36.0291 159.098 36.4829 160.057 37.2778L161.231 35.3428C160.002 34.351 158.447 33.6826 156.461 33.6826ZM62.6251 33.7003C59.2494 33.7003 57.7129 35.3808 57.7129 37.4216C57.7129 39.0827 58.6707 40.2212 60.531 40.709L62.8586 41.3411C63.9615 41.6481 64.6108 41.9726 64.6108 42.6405C64.6108 43.4531 63.7797 44.0118 62.2985 44.0118C60.8188 44.0118 59.3926 43.4346 58.5076 42.8598L57.911 45.2593C58.7062 45.7128 60.4585 46.3252 62.2466 46.3252C65.2081 46.3252 67.2485 44.7549 67.2485 42.4435C67.2485 40.6905 66.1649 39.6775 63.9434 39.0453L61.6677 38.398C60.783 38.1428 60.3306 37.8729 60.3306 37.2047C60.3306 36.5007 60.9827 36.0126 62.5332 36.0126C63.87 36.0126 65.4068 36.4646 66.3099 37.042L67.0327 34.6778C66.0936 34.1719 64.3959 33.7003 62.6251 33.7003ZM175.253 33.7758C173.516 33.7758 172.126 34.8987 172.126 36.8085C172.126 38.6974 173.516 39.8212 175.253 39.8212C176.15 39.8212 177.214 39.4513 177.758 39.0194V36.2637H175.002V37.3096H176.548V38.3885C176.229 38.5788 175.798 38.6975 175.33 38.6975C174.207 38.6975 173.377 38.0084 173.377 36.8085C173.377 35.5899 174.207 34.8983 175.279 34.8983C175.969 34.8983 176.514 35.1142 176.971 35.4937L177.533 34.5705C176.946 34.0936 176.201 33.7758 175.253 33.7758ZM167.898 33.863L165.557 39.7339H166.785L167.24 38.5595H169.912L170.359 39.7339H171.587L169.315 33.863H167.898ZM73.8387 33.8654L68.9453 46.1437H71.5099L72.4673 43.6876H78.047L78.9879 46.1437H81.5526L76.8018 33.8654H73.8387ZM84.2091 33.8654V46.1437H92.2248V43.9411H86.7395V33.8654H84.2091ZM94.9416 33.8654V36.0668H101.263L94.9416 44.3738V46.1437H104.513V43.9411H98.229L104.513 35.6341V33.8654H94.9416ZM107.959 33.8654V46.1437H113.92C116.791 46.1437 118.326 44.8801 118.326 42.8598C118.326 41.071 117.243 40.0932 115.456 39.7505C116.63 39.3008 117.352 38.4172 117.352 37.1316C117.352 34.8936 115.763 33.8654 113.091 33.8654H107.959ZM121.371 33.8654V40.9615C121.371 44.0843 123.305 46.3418 126.933 46.3418C130.6 46.3418 132.549 43.8498 132.549 40.9615V33.8654H130.021V40.781C130.021 42.676 129.01 43.9965 126.933 43.9965C124.892 43.9965 123.899 42.7504 123.899 40.7999V33.8654H121.371ZM136.217 33.8654V46.1437H138.745V41.7196H139.973C141.508 42.8594 143.53 46.3253 146.276 46.3253C147.071 46.3253 147.794 46.1081 148.298 45.8548L148.045 43.8503C147.649 44.0318 147.089 44.1392 146.674 44.1392C145.391 44.1392 144.199 42.7849 143.043 41.6654C145.011 41.3597 146.512 39.896 146.512 37.8556C146.512 34.8407 144.035 33.8654 141.617 33.8654H136.217ZM168.605 35.0623L169.609 37.6611H167.552L168.605 35.0623ZM110.49 36.0291H112.729C114.01 36.0291 114.731 36.3551 114.731 37.4217C114.731 38.4336 113.957 38.793 112.675 38.793H110.49V36.0291ZM138.745 36.0665H141.887C143.043 36.0665 143.873 36.7004 143.873 37.9084C143.873 39.0457 143.043 39.7337 141.887 39.7337H138.745V36.0665ZM75.322 36.3731L77.4173 41.8101H73.1182L75.322 36.3731ZM110.49 41.0154H113.343C114.805 41.0154 115.618 41.4127 115.618 42.5341C115.618 43.5256 114.95 43.9773 113.559 43.9773H110.49V41.0154Z" fill="#061A2D"/>
<path d="M28.7032 26.1255C28.4577 26.1255 28.2045 26.3158 28.1196 26.5464C28.1166 26.555 22.2734 45.6884 22.2734 45.6884C22.1985 45.931 22.3461 46.1341 22.6001 46.1341H36.6801C36.9352 46.1341 37.2047 45.9346 37.2779 45.692L38.3851 42.0614C38.4591 41.8187 38.3139 41.6193 38.0585 41.6193H28.978C28.7226 41.6193 28.5754 41.4202 28.649 41.1782L31.7419 31.0672C31.8158 30.8243 32.0842 30.6262 32.3385 30.6262H41.419C41.6723 30.6262 41.9418 30.4268 42.0168 30.1817L43.1205 26.5665C43.1951 26.3242 43.0479 26.1255 42.7938 26.1255H28.7032ZM35.7462 33.8606C35.4915 33.8606 35.2224 34.0597 35.1484 34.3028L34.0412 37.9345C33.9673 38.1767 34.1141 38.3766 34.3678 38.3766H43.4494C43.7035 38.3766 43.8508 38.5752 43.7772 38.82L40.6856 48.9275C40.612 49.1702 40.3418 49.3697 40.0877 49.3697H31.0073C30.7536 49.3697 30.4852 49.5692 30.4106 49.8118L29.307 53.4282C29.2313 53.6709 29.3796 53.8704 29.6336 53.8704H43.7242C43.9679 53.8704 44.2211 53.6802 44.3067 53.4495C44.3091 53.4428 50.154 34.3075 50.154 34.3075C50.2282 34.0633 50.0798 33.8606 49.8262 33.8606H35.7462Z" fill="#061A2D"/>
</svg>
