<svg width="200" height="80" viewBox="0 0 200 80" fill="none" xmlns="http://www.w3.org/2000/svg">
<path fill-rule="evenodd" clip-rule="evenodd" d="M78.8974 24.9058L67.3462 55.0944H69.2789L80.8301 24.9058H78.8974ZM111.463 24.9058L99.934 55.0944H101.867L113.396 24.9058H111.463ZM149.116 24.9058L137.587 55.0944H139.519L151.048 24.9058H149.116ZM90.271 27.5936C85.606 27.5936 82.4517 30.4006 82.4517 34.5466C82.4517 36.1051 82.9884 37.4557 83.9845 38.5229C84.9477 39.5216 86.1267 40.021 88.2717 40.6776L90.6486 41.4107C93.4858 42.2655 94.8026 43.6641 94.8026 45.6758C94.8026 47.013 94.2606 48.106 93.1588 48.9412C92.1902 49.676 91.2715 49.963 89.4935 49.963C87.0073 49.963 85.0907 49.3028 83.0737 47.8527L81.6742 50.3407C84.1613 51.877 86.5666 52.5843 89.4935 52.5843C91.6971 52.5843 93.3072 52.1151 94.8914 51.0959C97.0418 49.7205 98.2458 47.5462 98.2458 45.2759C98.2458 43.7538 97.6398 42.1242 96.6464 40.9886C95.6521 39.853 94.5271 39.2062 92.4035 38.5451L89.6712 37.6787C86.8891 36.7858 85.8282 35.7648 85.8282 33.969C85.8282 31.6588 87.5103 30.2149 90.4265 30.2149C92.7901 30.2149 94.2722 30.995 96.2465 32.2808L97.646 29.9705C95.3757 28.4316 93.0317 27.5936 90.271 27.5936ZM117.394 28.0823V52.0956H120.615V40.611H130.767V52.0956H134.055V28.0823H130.767V37.9231H120.615V28.0823H117.394ZM48.9531 28.1268V52.14H55.5729C59.2159 52.14 60.1614 51.9365 61.504 51.4291C63.96 50.4766 65.4581 48.0055 65.4581 45.498C65.4581 43.6854 64.8254 41.751 63.17 40.4999C62.4317 39.9215 61.6346 39.5705 60.4377 39.3004C62.947 38.3256 64.414 36.6365 64.414 34.1912C64.414 31.6286 62.7009 29.5342 60.1489 28.6599C58.873 28.2227 57.6574 28.1268 52.8183 28.1268H48.9531ZM52.1075 30.7924H55.5729C56.816 30.7924 57.5383 30.8644 58.1941 31.0368C59.7917 31.4438 60.8598 32.7259 60.8598 34.591C60.8598 35.2468 60.7212 35.6617 60.4822 36.2126C59.8024 37.7729 58.3212 38.2563 56.3504 38.2563H52.1075V30.7924ZM52.1075 40.922H56.417C57.6157 40.922 58.5691 41.0482 59.2382 41.1885C60.8918 41.5253 62.0816 43.1656 62.0816 45.2537C62.0816 48.0837 60.7283 49.4521 57.3055 49.4521H52.1075V40.922Z" fill="#061A2D"/>
</svg>
