<svg width="32" height="32" viewBox="0 0 32 32" fill="none" xmlns="http://www.w3.org/2000/svg">
<path fill-rule="evenodd" clip-rule="evenodd" d="M4 6.6C4 5.16406 5.16406 4 6.6 4H25.4C26.8359 4 28 5.16406 28 6.6V25.4C28 26.8359 26.8359 28 25.4 28H6.6C5.16406 28 4 26.8359 4 25.4V6.6ZM18.6429 12.1196L20.4327 18.273H20.5009L22.2907 12.1196H24.9668L22.0861 20.8469H18.8475L15.9668 12.1196H18.6429ZM12.7784 15.392H15.1818C15.1364 14.8494 15.0071 14.3679 14.794 13.9474C14.581 13.527 14.2997 13.1733 13.9503 12.8864C13.6009 12.5966 13.1946 12.3764 12.7315 12.2259C12.2685 12.0753 11.7614 12 11.2102 12C10.4261 12 9.71591 12.1719 9.07955 12.5156C8.44318 12.8565 7.9375 13.3608 7.5625 14.0284C7.1875 14.6932 7 15.5114 7 16.483C7 17.4489 7.18324 18.2656 7.54972 18.9332C7.91903 19.6009 8.42045 20.1065 9.05398 20.4503C9.69034 20.794 10.4091 20.9659 11.2102 20.9659C11.8494 20.9659 12.4105 20.8679 12.8935 20.6719C13.3764 20.4759 13.7812 20.2173 14.108 19.8963C14.4375 19.5724 14.6918 19.2202 14.8707 18.8395C15.0497 18.456 15.1534 18.0795 15.1818 17.7102L12.7784 17.6932C12.75 17.8807 12.6946 18.0497 12.6122 18.2003C12.5327 18.348 12.429 18.4744 12.3011 18.5795C12.1733 18.6847 12.0227 18.7656 11.8494 18.8224C11.6761 18.8764 11.4801 18.9034 11.2614 18.9034C10.8778 18.9034 10.5497 18.8139 10.277 18.6349C10.0043 18.4531 9.79545 18.1832 9.65057 17.8253C9.50852 17.4645 9.4375 17.017 9.4375 16.483C9.4375 15.9773 9.5071 15.544 9.64631 15.1832C9.78835 14.8224 9.99574 14.5455 10.2685 14.3523C10.544 14.1591 10.8807 14.0625 11.2784 14.0625C11.5057 14.0625 11.7088 14.0952 11.8878 14.1605C12.0668 14.223 12.2188 14.3139 12.3438 14.4332C12.4716 14.5497 12.571 14.6889 12.642 14.8509C12.7159 15.0128 12.7614 15.1932 12.7784 15.392Z" fill="currentColor"/>
</svg>
