<svg width="32" height="32" viewBox="0 0 32 32" fill="none" xmlns="http://www.w3.org/2000/svg">
<path d="M16.0033 2.66699C8.63659 2.66699 2.66993 8.63366 2.66993 16.0003C2.66751 18.7994 3.54694 21.5281 5.18333 23.799C6.81973 26.0699 9.12993 27.7676 11.7859 28.651C12.4526 28.767 12.7033 28.367 12.7033 28.0163C12.7033 27.7003 12.6859 26.651 12.6859 25.5337C9.33659 26.151 8.46993 24.7177 8.20326 23.967C8.05259 23.583 7.40326 22.4003 6.83659 22.083C6.36993 21.8337 5.70326 21.2163 6.81926 21.2003C7.86993 21.183 8.61926 22.167 8.86993 22.567C10.0699 24.583 11.9859 24.0163 12.7526 23.667C12.8699 22.8003 13.2193 22.2177 13.6033 21.8843C10.6366 21.551 7.53659 20.4003 7.53659 15.3003C7.53659 13.8497 8.05259 12.651 8.90326 11.7177C8.76993 11.3843 8.30326 10.0177 9.03659 8.18433C9.03659 8.18433 10.1526 7.83366 12.7033 9.54966C13.7888 9.24918 14.9102 9.09802 16.0366 9.10033C17.1699 9.10033 18.3033 9.24966 19.3699 9.54966C21.9206 7.81633 23.0366 8.18433 23.0366 8.18433C23.7699 10.0177 23.3033 11.3843 23.1699 11.7177C24.0193 12.651 24.5366 13.8337 24.5366 15.3003C24.5366 20.4177 21.4206 21.551 18.4539 21.8843C18.9366 22.3003 19.3539 23.1003 19.3539 24.351C19.3539 26.1337 19.3366 27.567 19.3366 28.0177C19.3366 28.367 19.5873 28.783 20.2539 28.6497C22.8999 27.7551 25.1991 26.0538 26.828 23.7848C28.4569 21.5159 29.3338 18.7935 29.3353 16.0003C29.3353 8.63366 23.3686 2.66699 16.0019 2.66699" fill="black"/>
</svg>
